<?xml version="1.0" encoding="UTF-8" standalone="no"?>
<svg
   height="16"
   viewBox="0 0 16 16"
   width="16"
   version="1.1"
   id="svg1"
   sodipodi:docname="entity_area_2d.svg"
   inkscape:version="1.3 (0e150ed6c4, 2023-07-21)"
   xmlns:inkscape="http://www.inkscape.org/namespaces/inkscape"
   xmlns:sodipodi="http://sodipodi.sourceforge.net/DTD/sodipodi-0.dtd"
   xmlns="http://www.w3.org/2000/svg"
   xmlns:svg="http://www.w3.org/2000/svg">
  <defs
     id="defs1" />
  <sodipodi:namedview
     id="namedview1"
     pagecolor="#ffffff"
     bordercolor="#111111"
     borderopacity="1"
     inkscape:showpageshadow="0"
     inkscape:pageopacity="0"
     inkscape:pagecheckerboard="1"
     inkscape:deskcolor="#d1d1d1"
     inkscape:zoom="31.3125"
     inkscape:cx="10.139721"
     inkscape:cy="3.752495"
     inkscape:window-width="1366"
     inkscape:window-height="697"
     inkscape:window-x="-8"
     inkscape:window-y="-8"
     inkscape:window-maximized="1"
     inkscape:current-layer="svg1" />
  <path
     d="M 1,1 V 5 H 3 V 3 H 5 V 1 Z m 10,0 v 2 h 2 v 2 h 2 V 1 Z M 1,11 v 4 H 5 V 13 H 3 v -2 z m 12,0 v 2 h -2 v 2 h 4 v -4 z"
     fill="#8da5f3"
     id="path1"
     sodipodi:nodetypes="cccccccccccccccccccccccccccc" />
  <g
     id="layer1"
     transform="matrix(2.9801511,0,0,2.9801511,0.91851322,-1.659167)">
    <g
       id="g3"
       transform="matrix(0.76162583,0,0,0.76162583,-0.036912,-0.06738806)">
      <path
         id="path1-4"
         style="fill:#8da5f3;stroke-width:0.540897"
         d="M 3.1739112,2.5197114 A 1.7376333,1.7357134 0 0 0 1.436118,4.2548362 1.7376333,1.7357134 0 0 0 3.1739112,5.9907091 1.7376333,1.7357134 0 0 0 4.9117043,4.2548362 1.7376333,1.7357134 0 0 0 3.1739112,2.5197114 Z M 3.7354557,2.9976186 A 0.47463132,0.47410686 0 0 1 4.2101479,3.4717864 0.47463132,0.47410686 0 0 1 3.7354557,3.9459541 0.47463132,0.47410686 0 0 1 3.2607634,3.4717864 0.47463132,0.47410686 0 0 1 3.7354557,2.9976186 Z m 0.8438142,1.3275202 c 0.010648,-3.185e-4 0.02178,0.00718 0.032945,0.023185 C 4.8166009,4.6412205 4.2976286,5.3872737 3.9361148,5.5531884 3.5468727,5.7318291 2.520274,5.7740574 2.520274,5.3923901 c 0,-0.2370249 0.7448322,0.1059245 1.3035321,-0.1286379 C 4.3744169,5.032584 4.4762919,4.3282177 4.5792699,4.3251388 Z" />
    </g>
  </g>
</svg>
