<?xml version="1.0" encoding="UTF-8" standalone="no"?>
<!-- Created with Inkscape (http://www.inkscape.org/) -->

<svg
   width="18"
   height="18"
   viewBox="0 0 4.7624999 4.7625001"
   version="1.1"
   id="svg1"
   xml:space="preserve"
   xmlns="http://www.w3.org/2000/svg"
   xmlns:svg="http://www.w3.org/2000/svg"><defs
     id="defs1" /><g
     id="layer1"><g
       id="g3"
       transform="matrix(0.76162583,0,0,0.76162583,-0.036912,-0.06738806)"><path
         id="path1"
         style="fill:#8da5f3;stroke-width:0.581417"
         d="M 3.1750001,2.432362 A 1.8667725,1.8667725 0 0 0 1.3080559,4.2985016 1.8667725,1.8667725 0 0 0 3.1750001,6.1654456 1.8667725,1.8667725 0 0 0 5.0419441,4.2985016 1.8667725,1.8667725 0 0 0 3.1750001,2.432362 Z m 0.6032778,0.5139927 a 0.50990542,0.50990542 0 0 1 0.5099709,0.509971 0.50990542,0.50990542 0 0 1 -0.5099709,0.5099708 0.50990542,0.50990542 0 0 1 -0.509971,-0.5099708 0.50990542,0.50990542 0 0 1 0.509971,-0.509971 z m 0.9065256,1.4277578 c 0.011441,-3.426e-4 0.023398,0.00772 0.035393,0.024936 C 4.939772,4.7140607 4.3822302,5.5164464 3.9938491,5.6948889 3.575679,5.8870183 2.4727845,5.9324352 2.4727845,5.5219491 c 0,-0.2549221 0.8001873,0.1139225 1.4004091,-0.138351 C 4.464726,5.134975 4.5741723,4.3774239 4.6848035,4.3741125 Z" /><rect
         style="fill:#8da5f3;fill-opacity:1;stroke-width:0.376008"
         id="rect1"
         width="0.51854789"
         height="1.7289923"
         x="1.3080559"
         y="0.87205714" /><rect
         style="fill:#8da5f3;fill-opacity:1;stroke-width:0.383399"
         id="rect1-1"
         width="0.51854789"
         height="1.7976327"
         x="2.9157259"
         y="0.26458332" /><rect
         style="fill:#8da5f3;fill-opacity:1;stroke-width:0.376008"
         id="rect1-6"
         width="0.51854789"
         height="1.7289923"
         x="4.523396"
         y="0.86955583" /></g></g></svg>
