<?xml version="1.0" encoding="UTF-8" standalone="no"?>
<!-- Created with Inkscape (http://www.inkscape.org/) -->

<svg
   width="18"
   height="18"
   viewBox="0 0 4.7624999 4.7625001"
   version="1.1"
   id="svg1"
   xml:space="preserve"
   sodipodi:docname="entity_body_2d.svg"
   inkscape:version="1.3 (0e150ed6c4, 2023-07-21)"
   xmlns:inkscape="http://www.inkscape.org/namespaces/inkscape"
   xmlns:sodipodi="http://sodipodi.sourceforge.net/DTD/sodipodi-0.dtd"
   xmlns="http://www.w3.org/2000/svg"
   xmlns:svg="http://www.w3.org/2000/svg"><sodipodi:namedview
     id="namedview1"
     pagecolor="#ffffff"
     bordercolor="#111111"
     borderopacity="1"
     inkscape:showpageshadow="0"
     inkscape:pageopacity="0"
     inkscape:pagecheckerboard="1"
     inkscape:deskcolor="#d1d1d1"
     showgrid="true"
     inkscape:zoom="32"
     inkscape:cx="4.578125"
     inkscape:cy="9.703125"
     inkscape:window-width="1366"
     inkscape:window-height="697"
     inkscape:window-x="-8"
     inkscape:window-y="-8"
     inkscape:window-maximized="1"
     inkscape:current-layer="svg1"><inkscape:grid
       id="grid1"
       units="px"
       originx="0"
       originy="0"
       spacingx="0.26458333"
       spacingy="0.26458334"
       empcolor="#0099e5"
       empopacity="0.30196078"
       color="#0099e5"
       opacity="0.14901961"
       empspacing="5"
       dotted="false"
       gridanglex="30"
       gridanglez="30"
       visible="true" /></sodipodi:namedview><defs
     id="defs1" /><g
     id="layer1"><g
       id="g3"
       transform="matrix(0.76162583,0,0,0.76162583,-0.036912,-0.06738806)"><path
         id="path1"
         style="fill:#8da5f3;stroke-width:0.540897"
         d="M 3.1739112,2.5197114 A 1.7376333,1.7357134 0 0 0 1.436118,4.2548362 1.7376333,1.7357134 0 0 0 3.1739112,5.9907091 1.7376333,1.7357134 0 0 0 4.9117043,4.2548362 1.7376333,1.7357134 0 0 0 3.1739112,2.5197114 Z M 3.7354557,2.9976186 A 0.47463132,0.47410686 0 0 1 4.2101479,3.4717864 0.47463132,0.47410686 0 0 1 3.7354557,3.9459541 0.47463132,0.47410686 0 0 1 3.2607634,3.4717864 0.47463132,0.47410686 0 0 1 3.7354557,2.9976186 Z m 0.8438142,1.3275202 c 0.010648,-3.185e-4 0.02178,0.00718 0.032945,0.023185 C 4.8166009,4.6412205 4.2976286,5.3872737 3.9361148,5.5531884 3.5468727,5.7318291 2.520274,5.7740574 2.520274,5.3923901 c 0,-0.2370249 0.7448322,0.1059245 1.3035321,-0.1286379 C 4.3744169,5.032584 4.4762919,4.3282177 4.5792699,4.3251388 Z" /><rect
         style="fill:#8da5f3;fill-opacity:1;stroke-width:0.436791"
         id="rect1-6"
         width="0.69473368"
         height="1.7414734"
         x="4.2161608"
         y="0.78083056" /><rect
         style="fill:#8da5f3;fill-opacity:1;stroke-width:0.435596"
         id="rect1-6-9"
         width="0.69196749"
         height="1.7388802"
         x="2.8283544"
         y="0.43417391" /><rect
         style="fill:#8da5f3;fill-opacity:1;stroke-width:0.439164"
         id="rect1-6-7"
         width="0.69978464"
         height="1.7477361"
         x="1.434232"
         y="0.7749905" /></g></g></svg>
