<?xml version="1.0" encoding="UTF-8" standalone="no"?>
<!-- Created with Inkscape (http://www.inkscape.org/) -->

<svg
   width="18"
   height="18"
   viewBox="0 0 4.7624999 4.7625001"
   version="1.1"
   id="svg1"
   xml:space="preserve"
   sodipodi:docname="entity_body_2d.svg"
   inkscape:version="1.3 (0e150ed6c4, 2023-07-21)"
   xmlns:inkscape="http://www.inkscape.org/namespaces/inkscape"
   xmlns:sodipodi="http://sodipodi.sourceforge.net/DTD/sodipodi-0.dtd"
   xmlns="http://www.w3.org/2000/svg"
   xmlns:svg="http://www.w3.org/2000/svg"><sodipodi:namedview
     id="namedview1"
     pagecolor="#ffffff"
     bordercolor="#111111"
     borderopacity="1"
     inkscape:showpageshadow="0"
     inkscape:pageopacity="0"
     inkscape:pagecheckerboard="1"
     inkscape:deskcolor="#d1d1d1"
     showgrid="true"
     inkscape:zoom="1"
     inkscape:cx="-147.5"
     inkscape:cy="23.5"
     inkscape:window-width="1366"
     inkscape:window-height="697"
     inkscape:window-x="-8"
     inkscape:window-y="-8"
     inkscape:window-maximized="1"
     inkscape:current-layer="svg1"><inkscape:grid
       id="grid1"
       units="px"
       originx="0"
       originy="0"
       spacingx="0.26458333"
       spacingy="0.26458334"
       empcolor="#0099e5"
       empopacity="0.30196078"
       color="#0099e5"
       opacity="0.14901961"
       empspacing="5"
       dotted="false"
       gridanglex="30"
       gridanglez="30"
       visible="true" /></sodipodi:namedview><defs
     id="defs1" /><path
     id="path1"
     style="fill:#8da5f3;stroke-width:0.540897"
     d="M 3.1739112,2.5197114 C 2.2144105,2.5196231 1.4364434,3.2963957 1.436118,4.2548362 1.4360298,5.2135689 2.214118,5.9907973 3.1739112,5.9907091 4.1337043,5.9907973 4.9117925,5.2135689 4.9117043,4.2548362 4.9113789,3.2963957 4.1334119,2.5196232 3.1739112,2.5197114 Z M 3.5161083,2.8508341 C 3.8780388,2.8508005 4.2028055,3.0693468 4.2027718,3.5556764 4.2215087,3.9796615 3.8655698,4.2543179 3.5161083,4.2542843 3.1604124,4.2605523 2.8107415,4.0358277 2.8107415,3.5556765 2.8169422,3.0568778 3.1728813,2.8570348 3.5161083,2.8508341 Z m 1.07604,1.3885475 C 4.7577509,4.2484278 4.6022997,5.1899035 3.8200379,5.4279583 3.3595521,5.5680916 2.75932,5.4246636 2.75932,5.281829 2.7593201,5.0448041 3.2691774,5.3434228 3.8278773,5.1088597 4.3784881,4.8776919 4.4573801,4.2320198 4.5921483,4.2393816 Z"
     transform="matrix(0.76162583,0,0,0.76162583,-0.036912,-0.06738806)"
     sodipodi:nodetypes="ccccccccccssscs" /><rect
     style="fill:#8da5f3;fill-opacity:1;stroke-width:0.436791"
     id="rect1-6"
     width="0.69473368"
     height="1.7414734"
     x="4.2161608"
     y="0.78083056"
     transform="matrix(0.76162583,0,0,0.76162583,-0.036912,-0.06738806)" /><rect
     style="fill:#8da5f3;fill-opacity:1;stroke-width:0.435596"
     id="rect1-6-9"
     width="0.69196749"
     height="1.7388802"
     x="2.8283544"
     y="0.43417391"
     transform="matrix(0.76162583,0,0,0.76162583,-0.036912,-0.06738806)" /><rect
     style="fill:#8da5f3;fill-opacity:1;stroke-width:0.439164"
     id="rect1-6-7"
     width="0.69978464"
     height="1.7477361"
     x="1.434232"
     y="0.7749905"
     transform="matrix(0.76162583,0,0,0.76162583,-0.036912,-0.06738806)" /></svg>
